<svg width="42" height="35" viewBox="0 0 42 35" fill="none" xmlns="http://www.w3.org/2000/svg">
<path d="M42 17.4979C42 18.1608 41.7345 18.7965 41.2619 19.2652C40.7894 19.734 40.1484 19.9973 39.4801 19.9973H8.61158L19.4303 30.7259C19.9037 31.1954 20.1696 31.8323 20.1696 32.4963C20.1696 33.1603 19.9037 33.7971 19.4303 34.2667C18.9569 34.7362 18.3148 35 17.6454 35C16.9759 35 16.3338 34.7362 15.8604 34.2667L0.741152 19.2704C0.506232 19.0382 0.319836 18.7623 0.192652 18.4585C0.0654686 18.1547 0 17.829 0 17.5C0 17.171 0.0654686 16.8453 0.192652 16.5415C0.319836 16.2377 0.506232 15.9618 0.741152 15.7296L15.8604 0.733321C16.0948 0.500829 16.3731 0.316407 16.6794 0.190584C16.9856 0.06476 17.3139 0 17.6454 0C17.9768 0 18.3051 0.06476 18.6113 0.190584C18.9176 0.316407 19.1959 0.500829 19.4303 0.733321C19.6647 0.965812 19.8506 1.24182 19.9775 1.54559C20.1043 1.84935 20.1696 2.17492 20.1696 2.50372C20.1696 2.83251 20.1043 3.15808 19.9775 3.46185C19.8506 3.76561 19.6647 4.04162 19.4303 4.27411L8.61158 14.9985H39.4801C40.1484 14.9985 40.7894 15.2619 41.2619 15.7306C41.7345 16.1993 42 16.835 42 17.4979Z" fill="white"/>
</svg>
