<svg width="42" height="35" viewBox="0 0 42 35" fill="none" xmlns="http://www.w3.org/2000/svg">
<path d="M41.2558 19.2713L26.1384 34.2667C25.6651 34.7362 25.0231 35 24.3537 35C23.6843 35 23.0423 34.7362 22.569 34.2667C22.0957 33.7972 21.8298 33.1604 21.8298 32.4964C21.8298 31.8324 22.0957 31.1957 22.569 30.7261L33.3842 20.0024H2.51957C1.85134 20.0024 1.21047 19.739 0.737964 19.2703C0.265454 18.8017 0 18.166 0 17.5031C0 16.8403 0.265454 16.2046 0.737964 15.7359C1.21047 15.2672 1.85134 15.0039 2.51957 15.0039H33.3842L22.5732 4.27386C22.0999 3.80435 21.834 3.16755 21.834 2.50357C21.834 1.83958 22.0999 1.20279 22.5732 0.733277C23.0465 0.263767 23.6885 9.89418e-09 24.3579 0C25.0273 -9.89418e-09 25.6693 0.263767 26.1426 0.733277L41.26 15.7287C41.4949 15.9612 41.6812 16.2374 41.8082 16.5415C41.9352 16.8457 42.0004 17.1717 42 17.5009C41.9996 17.83 41.9337 18.1559 41.8059 18.4597C41.6782 18.7636 41.4913 19.0394 41.2558 19.2713Z" fill="white"/>
</svg>
